# xmcd CD database file
#
# Track frame offsets:
#	150
#	19168
#	38043
#	58110
#	78776
#	98060
#	118660
#	138628
#	158488
#	178840
#	198675
#	215745
#	231660
#	252027
#	270422
#	286449
#	304772
#	321300
#
# Disc length: 4514 seconds
#
# Revision: 0
# Processed by: cddbd v1.5.1PL0 Copyright (c) Steve Scherf et al.
# Submitted via: CDex 1.51
#
DISCID=0811a012
DTITLE=Various Artist - Merengue Hits
DYEAR=2005
DGENRE=Merengue
TTITLE0=Mamy El Negro Esta Ravioso
TTITLE1=Abusadura
TTITLE2=Volvere
TTITLE3=El Perrito
TTITLE4=Soy Un Hombre Divertido
TTITLE5=El Dinero
TTITLE6=Estamos Gozando Como Bestias
TTITLE7=Te Voy Hacer Falta
TTITLE8=Sabrosa Que Esta
TTITLE9=Ella Se Parece Una Mona
TTITLE10=Cuando Tu Te Fuiste
TTITLE11=Dame Carino
TTITLE12=Eres Tu (salsa)
TTITLE13=Mas Que Una Carilia
TTITLE14=La Torta Dulle
TTITLE15=Cristina Me Quiere Governa
TTITLE16=Mambo Loco
TTITLE17=Morenita Linda, Morenita Bella
EXTD=YEAR: 2005
EXTT0=
EXTT1=
EXTT2=
EXTT3=
EXTT4=
EXTT5=
EXTT6=
EXTT7=
EXTT8=
EXTT9=
EXTT10=
EXTT11=
EXTT12=
EXTT13=
EXTT14=
EXTT15=
EXTT16=
EXTT17=
PLAYORDER=
